<svg id="visual" viewBox="0 0 900 600" width="900" height="600" xmlns="http://www.w3.org/2000/svg" xmlns:xlink="http://www.w3.org/1999/xlink" version="1.1"><path d="M0 43L13.7 47C27.3 51 54.7 59 82 64C109.3 69 136.7 71 163.8 73C191 75 218 77 245.2 78C272.3 79 299.7 79 327 82C354.3 85 381.7 91 409 93C436.3 95 463.7 93 491 92C518.3 91 545.7 91 573 89C600.3 87 627.7 83 654.8 77C682 71 709 63 736.2 68C763.3 73 790.7 91 818 90C845.3 89 872.7 69 886.3 59L900 49L900 0L886.3 0C872.7 0 845.3 0 818 0C790.7 0 763.3 0 736.2 0C709 0 682 0 654.8 0C627.7 0 600.3 0 573 0C545.7 0 518.3 0 491 0C463.7 0 436.3 0 409 0C381.7 0 354.3 0 327 0C299.7 0 272.3 0 245.2 0C218 0 191 0 163.8 0C136.7 0 109.3 0 82 0C54.7 0 27.3 0 13.7 0L0 0Z" fill="#7883eb"></path><path d="M0 139L13.7 135C27.3 131 54.7 123 82 123C109.3 123 136.7 131 163.8 140C191 149 218 159 245.2 165C272.3 171 299.7 173 327 171C354.3 169 381.7 163 409 155C436.3 147 463.7 137 491 142C518.3 147 545.7 167 573 172C600.3 177 627.7 167 654.8 159C682 151 709 145 736.2 143C763.3 141 790.7 143 818 143C845.3 143 872.7 141 886.3 140L900 139L900 47L886.3 57C872.7 67 845.3 87 818 88C790.7 89 763.3 71 736.2 66C709 61 682 69 654.8 75C627.7 81 600.3 85 573 87C545.7 89 518.3 89 491 90C463.7 91 436.3 93 409 91C381.7 89 354.3 83 327 80C299.7 77 272.3 77 245.2 76C218 75 191 73 163.8 71C136.7 69 109.3 67 82 62C54.7 57 27.3 49 13.7 45L0 41Z" fill="#5a68e4"></path><path d="M0 367L13.7 373C27.3 379 54.7 391 82 395C109.3 399 136.7 395 163.8 378C191 361 218 331 245.2 325C272.3 319 299.7 337 327 332C354.3 327 381.7 299 409 295C436.3 291 463.7 311 491 311C518.3 311 545.7 291 573 307C600.3 323 627.7 375 654.8 380C682 385 709 343 736.2 343C763.3 343 790.7 385 818 389C845.3 393 872.7 359 886.3 342L900 325L900 137L886.3 138C872.7 139 845.3 141 818 141C790.7 141 763.3 139 736.2 141C709 143 682 149 654.8 157C627.7 165 600.3 175 573 170C545.7 165 518.3 145 491 140C463.7 135 436.3 145 409 153C381.7 161 354.3 167 327 169C299.7 171 272.3 169 245.2 163C218 157 191 147 163.8 138C136.7 129 109.3 121 82 121C54.7 121 27.3 129 13.7 133L0 137Z" fill="#384cdb"></path><path d="M0 481L13.7 491C27.3 501 54.7 521 82 526C109.3 531 136.7 521 163.8 514C191 507 218 503 245.2 500C272.3 497 299.7 495 327 499C354.3 503 381.7 513 409 512C436.3 511 463.7 499 491 488C518.3 477 545.7 467 573 472C600.3 477 627.7 497 654.8 498C682 499 709 481 736.2 483C763.3 485 790.7 507 818 506C845.3 505 872.7 481 886.3 469L900 457L900 323L886.3 340C872.7 357 845.3 391 818 387C790.7 383 763.3 341 736.2 341C709 341 682 383 654.8 378C627.7 373 600.3 321 573 305C545.7 289 518.3 309 491 309C463.7 309 436.3 289 409 293C381.7 297 354.3 325 327 330C299.7 335 272.3 317 245.2 323C218 329 191 359 163.8 376C136.7 393 109.3 397 82 393C54.7 389 27.3 377 13.7 371L0 365Z" fill="#2f41be"></path><path d="M0 601L13.7 601C27.3 601 54.7 601 82 601C109.3 601 136.7 601 163.8 601C191 601 218 601 245.2 601C272.3 601 299.7 601 327 601C354.3 601 381.7 601 409 601C436.3 601 463.7 601 491 601C518.3 601 545.7 601 573 601C600.3 601 627.7 601 654.8 601C682 601 709 601 736.2 601C763.3 601 790.7 601 818 601C845.3 601 872.7 601 886.3 601L900 601L900 455L886.3 467C872.7 479 845.3 503 818 504C790.7 505 763.3 483 736.2 481C709 479 682 497 654.8 496C627.7 495 600.3 475 573 470C545.7 465 518.3 475 491 486C463.7 497 436.3 509 409 510C381.7 511 354.3 501 327 497C299.7 493 272.3 495 245.2 498C218 501 191 505 163.8 512C136.7 519 109.3 529 82 524C54.7 519 27.3 499 13.7 489L0 479Z" fill="#2737a2"></path></svg>