<svg id="visual" viewBox="0 0 900 600" width="900" height="600" xmlns="http://www.w3.org/2000/svg" xmlns:xlink="http://www.w3.org/1999/xlink" version="1.1"><path d="M0 61L13.7 68C27.3 75 54.7 89 82 89C109.3 89 136.7 75 163.8 76C191 77 218 93 245.2 97C272.3 101 299.7 93 327 88C354.3 83 381.7 81 409 85C436.3 89 463.7 99 491 101C518.3 103 545.7 97 573 99C600.3 101 627.7 111 654.8 117C682 123 709 125 736.2 114C763.3 103 790.7 79 818 68C845.3 57 872.7 59 886.3 60L900 61L900 0L886.3 0C872.7 0 845.3 0 818 0C790.7 0 763.3 0 736.2 0C709 0 682 0 654.8 0C627.7 0 600.3 0 573 0C545.7 0 518.3 0 491 0C463.7 0 436.3 0 409 0C381.7 0 354.3 0 327 0C299.7 0 272.3 0 245.2 0C218 0 191 0 163.8 0C136.7 0 109.3 0 82 0C54.7 0 27.3 0 13.7 0L0 0Z" fill="#6198ff"></path><path d="M0 211L13.7 227C27.3 243 54.7 275 82 279C109.3 283 136.7 259 163.8 256C191 253 218 271 245.2 273C272.3 275 299.7 261 327 252C354.3 243 381.7 239 409 231C436.3 223 463.7 211 491 208C518.3 205 545.7 211 573 216C600.3 221 627.7 225 654.8 246C682 267 709 305 736.2 309C763.3 313 790.7 283 818 255C845.3 227 872.7 201 886.3 188L900 175L900 59L886.3 58C872.7 57 845.3 55 818 66C790.7 77 763.3 101 736.2 112C709 123 682 121 654.8 115C627.7 109 600.3 99 573 97C545.7 95 518.3 101 491 99C463.7 97 436.3 87 409 83C381.7 79 354.3 81 327 86C299.7 91 272.3 99 245.2 95C218 91 191 75 163.8 74C136.7 73 109.3 87 82 87C54.7 87 27.3 73 13.7 66L0 59Z" fill="#3c80ff"></path><path d="M0 301L13.7 317C27.3 333 54.7 365 82 362C109.3 359 136.7 321 163.8 317C191 313 218 343 245.2 352C272.3 361 299.7 349 327 346C354.3 343 381.7 349 409 344C436.3 339 463.7 323 491 314C518.3 305 545.7 303 573 305C600.3 307 627.7 313 654.8 332C682 351 709 383 736.2 380C763.3 377 790.7 339 818 309C845.3 279 872.7 257 886.3 246L900 235L900 173L886.3 186C872.7 199 845.3 225 818 253C790.7 281 763.3 311 736.2 307C709 303 682 265 654.8 244C627.7 223 600.3 219 573 214C545.7 209 518.3 203 491 206C463.7 209 436.3 221 409 229C381.7 237 354.3 241 327 250C299.7 259 272.3 273 245.2 271C218 269 191 251 163.8 254C136.7 257 109.3 281 82 277C54.7 273 27.3 241 13.7 225L0 209Z" fill="#0066ff"></path><path d="M0 355L13.7 371C27.3 387 54.7 419 82 414C109.3 409 136.7 367 163.8 365C191 363 218 401 245.2 412C272.3 423 299.7 407 327 405C354.3 403 381.7 415 409 409C436.3 403 463.7 379 491 368C518.3 357 545.7 359 573 368C600.3 377 627.7 393 654.8 415C682 437 709 465 736.2 464C763.3 463 790.7 433 818 404C845.3 375 872.7 347 886.3 333L900 319L900 233L886.3 244C872.7 255 845.3 277 818 307C790.7 337 763.3 375 736.2 378C709 381 682 349 654.8 330C627.7 311 600.3 305 573 303C545.7 301 518.3 303 491 312C463.7 321 436.3 337 409 342C381.7 347 354.3 341 327 344C299.7 347 272.3 359 245.2 350C218 341 191 311 163.8 315C136.7 319 109.3 357 82 360C54.7 363 27.3 331 13.7 315L0 299Z" fill="#0059dd"></path><path d="M0 601L13.7 601C27.3 601 54.7 601 82 601C109.3 601 136.7 601 163.8 601C191 601 218 601 245.2 601C272.3 601 299.7 601 327 601C354.3 601 381.7 601 409 601C436.3 601 463.7 601 491 601C518.3 601 545.7 601 573 601C600.3 601 627.7 601 654.8 601C682 601 709 601 736.2 601C763.3 601 790.7 601 818 601C845.3 601 872.7 601 886.3 601L900 601L900 317L886.3 331C872.7 345 845.3 373 818 402C790.7 431 763.3 461 736.2 462C709 463 682 435 654.8 413C627.7 391 600.3 375 573 366C545.7 357 518.3 355 491 366C463.7 377 436.3 401 409 407C381.7 413 354.3 401 327 403C299.7 405 272.3 421 245.2 410C218 399 191 361 163.8 363C136.7 365 109.3 407 82 412C54.7 417 27.3 385 13.7 369L0 353Z" fill="#004cbb"></path></svg>